HIERARCHY
ROOT Hips
{
 OFFSET 0.000000 0.000000 0.000000
 CHANNELS 6 Xposition Yposition Zposition Yrotation Xrotation Zrotation
 JOINT Chest
 {
  OFFSET 0.000000 9.585900 0.002600
  CHANNELS 3 Yrotation Xrotation Zrotation
  JOINT Chest2
  {
   OFFSET 0.000000 9.601200 -0.005300
   CHANNELS 3 Yrotation Xrotation Zrotation
   JOINT Chest3
   {
    OFFSET 0.000000 9.561800 0.000000
    CHANNELS 3 Yrotation Xrotation Zrotation
    JOINT Chest4
    {
     OFFSET 0.000000 9.552100 0.000000
     CHANNELS 3 Yrotation Xrotation Zrotation
     JOINT Neck
     {
      OFFSET 0.000000 14.453000 0.000000
      CHANNELS 3 Yrotation Xrotation Zrotation
      JOINT Head
      {
       OFFSET 0.000000 8.936500 -0.011300
       CHANNELS 3 Yrotation Xrotation Zrotation
       End Site
       {
        OFFSET 0.000000 17.073600 -0.006000
       }
      }
     }
     JOINT RightCollar
     {
      OFFSET -2.921100 9.558500 0.000000
      CHANNELS 3 Yrotation Xrotation Zrotation
      JOINT RightShoulder
      {
       OFFSET -13.519700 0.000000 0.000000
       CHANNELS 3 Yrotation Xrotation Zrotation
       JOINT RightElbow
       {
        OFFSET 0.000000 -29.696600 0.000000
        CHANNELS 3 Yrotation Xrotation Zrotation
        JOINT RightWrist
        {
         OFFSET 0.000000 -24.004700 0.000000
         CHANNELS 3 Yrotation Xrotation Zrotation
         End Site
         {
          OFFSET 0.000000 -17.728500 0.000000
         }
        }
       }
      }
     }
     JOINT LeftCollar
     {
      OFFSET 2.921100 9.558500 0.000000
      CHANNELS 3 Yrotation Xrotation Zrotation
      JOINT LeftShoulder
      {
       OFFSET 13.519700 0.000000 0.000000
       CHANNELS 3 Yrotation Xrotation Zrotation
       JOINT LeftElbow
       {
        OFFSET 0.000000 -29.696600 0.000000
        CHANNELS 3 Yrotation Xrotation Zrotation
        JOINT LeftWrist
        {
         OFFSET 0.000000 -24.004700 0.000000
         CHANNELS 3 Yrotation Xrotation Zrotation
         End Site
         {
          OFFSET 0.000000 -17.728500 0.000000
         }
        }
       }
      }
     }
    }
   }
  }
 }
 JOINT RightHip
 {
  OFFSET -7.771700 -0.012900 -0.001300
  CHANNELS 3 Yrotation Xrotation Zrotation
  JOINT RightKnee
  {
   OFFSET 0.000000 -40.869800 0.001200
   CHANNELS 3 Yrotation Xrotation Zrotation
   JOINT RightAnkle
   {
    OFFSET 0.000000 -39.717900 0.002100
    CHANNELS 3 Yrotation Xrotation Zrotation
    JOINT RightToe
    {
     OFFSET 0.000000 -4.965400 11.033500
     CHANNELS 3 Yrotation Xrotation Zrotation
     End Site
     {
      OFFSET 0.000000 -1.423100 5.872300
     }
    }
   }
  }
 }
 JOINT LeftHip
 {
  OFFSET 7.771700 -0.012900 -0.001300
  CHANNELS 3 Yrotation Xrotation Zrotation
  JOINT LeftKnee
  {
   OFFSET 0.000000 -40.869800 0.001200
   CHANNELS 3 Yrotation Xrotation Zrotation
   JOINT LeftAnkle
   {
    OFFSET 0.000000 -39.717900 0.002100
    CHANNELS 3 Yrotation Xrotation Zrotation
    JOINT LeftToe
    {
     OFFSET 0.000000 -4.965400 11.033500
     CHANNELS 3 Yrotation Xrotation Zrotation
     End Site
     {
      OFFSET 0.000000 -1.423100 5.872300
     }
    }
   }
  }
 }
}
MOTION
Frames: 15
Frame Time: 0.008333
0.000000 85.388000 0.000000 0.000000 -5.767877 0.000000 0.000000 11.653817 0.000000 0.000000 -5.885947 0.000000 0.000000 -0.000000 0.000000 0.000000 -0.000000 0.000000 0.000000 12.528835 0.000000 0.000000 0.711642 0.000000 0.000000 -0.000000 0.000000 0.000000 0.000000 -90.000000 0.000000 -2.309062 0.000000 0.000000 2.309062 0.000000 0.000000 -0.000000 0.000000 0.000000 -0.000000 90.000000 0.000000 -2.309062 0.000000 0.000000 2.309062 0.000000 0.000000 8.520406 0.000000 0.000000 1.905762 0.000000 -0.000000 -4.658285 0.000000 0.000000 -0.000000 0.000000 0.000000 8.520406 0.000000 0.000000 1.905762 0.000000 -0.000000 -4.658285 0.000000 0.000000 -0.000000 0.000000
-27.630267 48.662741 28.522110 173.086467 -30.731878 -0.109872 -0.069865 14.523056 1.742619 -0.226744 8.311723 1.387057 -0.250189 10.387554 1.729181 -0.209020 8.299811 1.378826 -0.750978 16.499639 -2.886901 -0.354151 -5.151053 -5.109845 5.712547 3.837920 -3.996516 2.246559 -18.605170 -9.249906 43.251680 -63.884721 -30.331572 13.923395 6.588163 -38.672279 -3.888369 1.384945 -5.288979 5.555572 -23.690037 -0.350625 -72.937475 -44.296434 47.678077 -11.875729 15.864905 34.074176 24.069937 -50.754032 -28.641170 -112.741592 69.879734 -103.644993 1.604363 -5.621797 4.593714 0.229535 -0.851502 0.091341 -5.494500 -52.778960 13.883422 112.594083 80.342021 110.204664 -4.358285 -11.462582 -3.007740 0.239548 0.726666 0.109276
-27.629758 48.661883 28.523828 173.081404 -30.723528 -0.111899 -0.061730 14.511674 1.745521 -0.219046 8.307343 1.385141 -0.247219 10.387763 1.732621 -0.212336 8.301047 1.380630 -0.722430 16.497008 -2.879825 -0.251688 -5.155847 -5.099932 5.713195 3.826598 -4.001141 2.254297 -18.591350 -9.256246 43.230894 -63.885362 -30.295345 13.913414 6.592473 -38.681459 -3.897439 1.387365 -5.284982 5.560471 -23.694193 -0.349765 -72.911654 -44.303022 47.642952 -11.884560 15.857983 34.084031 24.075588 -50.763508 -28.642303 -112.740566 69.888105 -103.643436 1.605337 -5.616551 4.592833 0.224219 -0.853874 0.092814 -5.499596 -52.786975 13.893043 112.587831 80.343300 110.202059 -4.361376 -11.463876 -3.015811 0.246700 0.728297 0.112576
-27.629859 48.661816 28.524105 173.082025 -30.723526 -0.113282 -0.059040 14.507792 1.746855 -0.218281 8.307845 1.383744 -0.238460 10.381202 1.729976 -0.215683 8.304345 1.384240 -0.689673 16.492473 -2.874049 -0.169507 -5.155882 -5.090052 5.726694 3.792294 -4.018963 2.248098 -18.551235 -9.246618 43.200102 -63.887235 -30.238560 13.900963 6.600738 -38.719503 -3.916979 1.382224 -5.273929 5.562422 -23.690544 -0.347558 -72.883822 -44.314185 47.620308 -11.873588 15.854485 34.086106 24.074482 -50.764110 -28.641495 -112.742909 69.882400 -103.642606 1.600968 -5.615577 4.587771 0.224251 -0.852718 0.097334 -5.505509 -52.787687 13.893888 112.596660 80.342736 110.210292 -4.350416 -11.463728 -3.017798 0.242234 0.727331 0.111043
-27.630897 48.661174 28.525203 173.079475 -30.715904 -0.109349 -0.053550 14.494698 1.745746 -0.207372 8.298248 1.382878 -0.231438 10.376600 1.729330 -0.220502 8.309764 1.388538 -0.657362 16.494154 -2.864343 -0.104238 -5.155618 -5.080349 5.721667 3.781198 -4.022615 2.245604 -18.527189 -9.243175 43.186964 -63.888663 -30.211160 13.892259 6.605575 -38.741142 -3.949380 1.386207 -5.257372 5.581407 -23.683023 -0.358502 -72.839053 -44.333704 47.579617 -11.865295 15.851795 34.095807 24.079869 -50.773934 -28.647054 -112.737312 69.879282 -103.640713 1.597682 -5.609482 4.584147 0.225359 -0.854679 0.101056 -5.502179 -52.797329 13.883804 112.599585 80.346478 110.217014 -4.333232 -11.458903 -3.021145 0.239757 0.724754 0.108879
-27.632770 48.661375 28.524813 173.078422 -30.716840 -0.101333 -0.052242 14.492483 1.738893 -0.205406 8.296794 1.382256 -0.232412 10.377958 1.729430 -0.207544 8.298423 1.382754 -0.620878 16.494971 -2.850929 -0.035310 -5.157201 -5.067149 5.711088 3.782032 -4.016517 2.250212 -18.514698 -9.245671 43.179286 -63.890881 -30.187505 13.884109 6.607689 -38.753415 -3.986630 1.377092 -5.233065 5.594419 -23.663973 -0.366149 -72.797768 -44.344768 47.555066 -11.861515 15.843284 34.095628 24.074523 -50.768745 -28.654672 -112.723380 69.887966 -103.632643 1.607288 -5.613896 4.587152 0.212523 -0.848882 0.096334 -5.494777 -52.797207 13.869806 112.605257 80.347568 110.221274 -4.325772 -11.455090 -3.021050 0.238815 0.721091 0.107618
-27.633757 48.661550 28.524637 173.075600 -30.716346 -0.098753 -0.048039 14.489180 1.738349 -0.203257 8.295122 1.381692 -0.222937 10.369402 1.727078 -0.203267 8.295105 1.381761 -0.529727 16.476523 -2.830496 -0.018096 -5.138669 -5.045007 5.698702 3.784011 -4.010902 2.266177 -18.502319 -9.256081 43.152620 -63.894432 -30.156753 13.874308 6.611625 -38.763473 -4.009856 1.385995 -5.218598 5.589439 -23.664054 -0.365070 -72.755934 -44.355826 47.526194 -11.857030 15.830866 34.094853 24.075437 -50.768385 -28.657929 -112.723118 69.888062 -103.629340 1.605095 -5.615477 4.582652 0.219010 -0.846921 0.097301 -5.492439 -52.797652 13.867814 112.614695 80.350166 110.230877 -4.329090 -11.454816 -3.018812 0.238007 0.720013 0.105943
-27.635472 48.662541 28.523002 173.077470 -30.724864 -0.093726 -0.037885 14.479839 1.738735 -0.208806 8.302590 1.376589 -0.219146 10.365452 1.726642 -0.200234 8.291908 1.381369 -0.489836 16.472258 -2.816238 0.050809 -5.135237 -5.034062 5.698829 3.773000 -4.011614 2.273529 -18.477547 -9.256293 43.127519 -63.891615 -30.133146 13.864116 6.615885 -38.775876 -4.026028 1.400722 -5.209783 5.571183 -23.673743 -0.358405 -72.702043 -44.365819 47.487790 -11.858687 15.822610 34.098193 24.072781 -50.757362 -28.662539 -112.734066 69.888901 -103.638637 1.604721 -5.621367 4.579630 0.223191 -0.845382 0.098305 -5.486114 -52.786849 13.851693 112.607104 80.351079 110.224515 -4.325743 -11.460841 -3.022857 0.236270 0.723335 0.107823
-27.638164 48.663260 28.521655 173.077683 -30.730303 -0.082400 -0.037474 14.479244 1.729775 -0.193304 8.276003 1.379703 -0.215036 10.354689 1.723260 -0.210011 8.313053 1.381386 -0.450218 16.470524 -2.802051 0.120172 -5.125029 -5.025765 5.720132 3.740058 -4.013072 2.265051 -18.428461 -9.254761 43.091808 -63.885039 -30.103967 13.857299 6.612549 -38.773047 -4.050901 1.409493 -5.196861 5.558178 -23.677990 -0.352112 -72.628482 -44.380054 47.433570 -11.851833 15.810192 34.105110 24.081552 -50.742045 -28.684405 -112.742659 69.902770 -103.642227 1.610678 -5.630417 4.579970 0.216283 -0.839504 0.095166 -5.477933 -52.779183 13.825756 112.591772 80.347281 110.208775 -4.314421 -11.464959 -3.024172 0.231336 0.726151 0.103680
-27.638852 48.663962 28.520446 173.079833 -30.736252 -0.083858 -0.036596 14.478129 1.732067 -0.187052 8.263016 1.381502 -0.218940 10.361825 1.721741 -0.187803 8.265002 1.378836 -0.437212 16.513606 -2.789265 0.203495 -5.114645 -5.024251 5.709132 3.768669 -4.004837 2.273245 -18.402286 -9.253779 43.070530 -63.874161 -30.089097 13.850517 6.615091 -38.780785 -4.085651 1.451183 -5.187197 5.517080 -23.705658 -0.336006 -72.493139 -44.390692 47.330572 -11.838949 15.791988 34.112637 24.077552 -50.733797 -28.684991 -112.754240 69.907517 -103.648316 1.611115 -5.634341 4.577486 0.219616 -0.839504 0.095273 -5.481891 -52.772783 13.822304 112.606625 80.353312 110.227056 -4.307327 -11.466604 -3.031071 0.227629 0.726183 0.106627
-27.639159 48.664790 28.518893 173.080075 -30.744628 -0.086019 -0.028937 14.471043 1.738098 -0.186508 8.256433 1.384280 -0.221493 10.370735 1.719247 -0.180534 8.243422 1.380442 -0.395976 16.525315 -2.782320 0.277088 -5.091483 -5.025592 5.712936 3.765482 -4.004078 2.282002 -18.368646 -9.255075 43.051801 -63.863888 -30.076120 13.841408 6.619411 -38.794826 -4.111762 1.426035 -5.183338 5.522453 -23.660570 -0.330899 -72.420217 -44.418234 47.266378 -11.859523 15.783267 34.123435 24.076033 -50.723016 -28.683708 -112.764137 69.911214 -103.652174 1.616602 -5.634663 4.576213 0.215244 -0.842036 0.095074 -5.484566 -52.764117 13.822881 112.638262 80.361869 110.264366 -4.312597 -11.469639 -3.035259 0.235177 0.725304 0.107978
-27.640383 48.665397 28.517365 173.077963 -30.751718 -0.081308 -0.022199 14.462781 1.741408 -0.189780 8.259986 1.381491 -0.205113 10.320248 1.725602 -0.196956 8.286489 1.376482 -0.331107 16.515746 -2.775121 0.343590 -5.054246 -5.030201 5.726435 3.740430 -4.003575 2.298038 -18.338980 -9.260042 43.009985 -63.845795 -30.043104 13.836128 6.622470 -38.803066 -4.120950 1.426645 -5.183075 5.515727 -23.657570 -0.325816 -72.371886 -44.431661 47.222912 -11.858586 15.776050 34.128991 24.085891 -50.709984 -28.692571 -112.774944 69.913814 -103.652945 1.613356 -5.640536 4.570242 0.219154 -0.838610 0.098383 -5.484028 -52.756712 13.813114 112.661018 80.362425 110.288578 -4.307786 -11.473051 -3.038363 0.237362 0.725025 0.105984
-27.641229 48.665961 28.515677 173.074159 -30.759773 -0.077953 -0.015885 14.451718 1.746876 -0.191576 8.266233 1.378580 -0.201578 10.295987 1.727426 -0.192724 8.270033 1.378009 -0.302031 16.552296 -2.774861 0.445119 -5.018365 -5.044885 5.733782 3.746556 -4.000198 2.303865 -18.312174 -9.262183 42.966349 -63.824020 -30.006780 13.838626 6.627889 -38.790376 -4.135554 1.459640 -5.187197 5.469943 -23.706016 -0.297131 -72.202496 -44.464547 47.060921 -11.805993 15.748816 34.137353 24.093908 -50.695648 -28.699599 -112.785606 69.918666 -103.650831 1.613073 -5.648079 4.561567 0.220431 -0.834184 0.101690 -5.483486 -52.749925 13.804342 112.684724 80.358757 110.314362 -4.294341 -11.473268 -3.042154 0.240255 0.721127 0.103887
-27.642552 48.666617 28.513537 173.069343 -30.769948 -0.071486 -0.012130 14.440563 1.747117 -0.185984 8.224846 1.383070 -0.205272 10.315592 1.724038 -0.188964 8.252087 1.379091 -0.254203 16.591993 -2.773887 0.537630 -4.961805 -5.059293 5.743105 3.756267 -3.995374 2.335792 -18.313830 -9.267111 42.860178 -63.771545 -29.924391 13.835049 6.628853 -38.764499 -4.155880 1.478609 -5.187998 5.448293 -23.707234 -0.280102 -72.071820 -44.501876 46.929132 -11.829253 15.745704 34.165217 24.104171 -50.677950 -28.711671 -112.801918 69.927507 -103.653898 1.613702 -5.655334 4.555855 0.220528 -0.831730 0.101144 -5.478677 -52.740193 13.791084 112.698697 80.352893 110.330943 -4.287032 -11.473532 -3.045776 0.223465 0.716472 0.101898
-27.643351 48.667418 28.510934 173.072494 -30.783038 -0.072953 -0.012987 14.427127 1.751216 -0.187196 8.233203 1.381471 -0.201099 10.284757 1.726724 -0.192907 8.273540 1.377615 -0.179965 16.594112 -2.770187 0.618307 -4.883755 -5.071913 5.759553 3.727562 -3.992781 2.329853 -18.273829 -9.267510 42.848845 -63.765064 -29.875227 13.820287 6.651292 -38.781589 -4.175631 1.455974 -5.185071 5.429452 -23.705811 -0.258184 -71.941151 -44.531356 46.798950 -11.801138 15.723844 34.180989 24.100413 -50.661186 -28.713956 -112.829513 69.937913 -103.669068 1.606805 -5.660994 4.548449 0.226673 -0.833331 0.102391 -5.486046 -52.726109 13.789763 112.713829 80.352608 110.347186 -4.290542 -11.476450 -3.047953 0.231076 0.716006 0.100787
